<?xml version="1.0" encoding="iso-8859-1"?>
<!-- Generator: Adobe Illustrator 19.0.0, SVG Export Plug-In . SVG Version: 6.00 Build 0)  -->
<svg version="1.1" id="Capa_1" xmlns="http://www.w3.org/2000/svg" xmlns:xlink="http://www.w3.org/1999/xlink" x="0px" y="0px"
	 viewBox="0 0 512 512" style="enable-background:new 0 0 512 512;" xml:space="preserve">
<path style="fill:#A75436;" d="M102.033,33.53c-34.666,0-62.963,27.912-63.955,62.583c-0.028,0.499-0.047,1.001-0.047,1.508v0.367
	c-0.039,13.271-0.069,31.092-0.045,38.858c0,0.162,0.029,0.316,0.045,0.475v58.9c0,13.202,9.918,24.081,22.709,25.607
	c1.335-16.931,11.609-31.38,26.099-38.619c-10.57-6.827-18.519-17.424-21.933-29.906h-4.681c-6.83,0-12.418-5.588-12.418-12.418
	v-1.547c0-6.83,5.588-12.419,12.418-12.419h2.828v-15.91c0-1.11,0.472-2.166,1.3-2.91c0.727-0.653,1.668-1.009,2.639-1.009
	c0.133,0,0.266,0.006,0.399,0.019c2.725,0.277,5.502,0.417,8.254,0.417c17.273,0,34.345-5.751,48.067-16.196
	c0.705-0.536,1.549-0.806,2.393-0.806c0.781,0,1.564,0.231,2.24,0.695c10.142,6.976,21.996,11.545,34.28,13.217
	c1.946,0.265,3.401,1.917,3.405,3.871c0.003,1.049,0.006-10.318,0.006-10.318C166.037,62.445,137.324,33.53,102.033,33.53z"/>
<path style="fill:#30A1D0;" d="M446.222,188.258v-77.395c0-8.25-6.75-15-15-15H359.5c-8.25,0-15,6.75-15,15c0-8.25-6.75-15-15-15
	h-71.719c-8.25,0-15,6.75-15,15v77.395H446.222z"/>
<g style="opacity:0.1;">
	<path style="fill:#37005E;" d="M263.281,188.258v-77.395c0-8.25,6.75-15,15-15h-20.5c-8.25,0-15,6.75-15,15v77.395H263.281z"/>
	<path style="fill:#37005E;" d="M365.278,188.258v-77.395c0-8.25,6.75-15,15-15H359.5c-8.25,0-15,6.75-15,15v77.395H365.278z"/>
</g>
<rect x="242.78" y="188.259" style="fill:#046699;" width="203.44" height="37.3"/>
<path style="fill:#30A1D0;" d="M237.781,166.219h-28.994c-2.75,0-5,2.25-5,5v58.299h6.475c5.5,0,10,4.5,10,10v8.078h17.52
	c2.75,0,5-2.25,5-5v-71.377C242.781,168.469,240.531,166.219,237.781,166.219z"/>
<g style="opacity:0.1;">
	<path style="fill:#37005E;" d="M224.006,242.596v-71.377c0-2.75,2.25-5,5-5h-20.219c-2.75,0-5,2.25-5,5v58.299h6.475
		c5.5,0,10,4.5,10,10v8.078h8.744C226.256,247.596,224.006,245.346,224.006,242.596z"/>
</g>
<path style="fill:#30A1D0;" d="M485.215,242.596c0,2.75-2.25,5-5,5h-28.993c-2.75,0-5-2.25-5-5v-71.377c0-2.75,2.25-5,5-5h28.993
	c2.75,0,5,2.25,5,5V242.596z"/>
<g style="opacity:0.1;">
	<path style="fill:#37005E;" d="M467.007,242.596v-71.377c0-2.75,2.25-5,5-5h-20.785c-2.75,0-5,2.25-5,5v71.377c0,2.75,2.25,5,5,5
		h20.785C469.257,247.596,467.007,245.346,467.007,242.596z"/>
</g>
<path style="fill:#FFD5B3;" d="M200.58,251.89h12.255c2.749,0,5.248,1.124,7.06,2.936c0.232-0.842,0.366-1.723,0.366-2.636v-12.672
	c0-5.5-4.5-10-10-10h-12.254c-2.454,0-4.704,0.899-6.449,2.38v14.346v11.372C193.17,254.241,196.609,251.89,200.58,251.89z"/>
<rect x="155.27" y="226.429" style="fill:#FCDB80;" width="36.29" height="19.819"/>
<g style="opacity:0.1;">
	<path style="fill:#37005E;" d="M58.994,153.241c-6.257-0.623-11.186-5.941-11.186-12.355v-1.547
		c0-6.396,4.901-11.703,11.133-12.352c0.004-8.668,0.026-19.902,0.053-28.999v-0.367c0-0.507,0.019-1.009,0.047-1.508
		c0.89-31.102,23.758-56.749,53.479-61.703c-3.414-0.569-6.915-0.88-10.487-0.88c-34.666,0-62.963,27.912-63.955,62.583
		c-0.028,0.499-0.047,1.001-0.047,1.508v0.367c-0.039,13.271-0.069,31.092-0.045,38.858c0,0.162,0.029,0.316,0.045,0.475v58.9
		c0,13.202,9.918,24.081,22.709,25.607c0.317-4.024,1.138-7.907,2.403-11.588c-2.621-4.036-4.15-8.847-4.15-14.019L58.994,153.241
		L58.994,153.241z"/>
</g>
<path id="SVGCleanerId_0" style="fill:#FFD5B3;" d="M166.031,108.307c-0.004-1.954-1.459-3.606-3.405-3.871
	c-12.284-1.672-24.139-6.241-34.28-13.217c-0.676-0.464-1.459-0.695-2.24-0.695c-0.844,0-1.687,0.27-2.393,0.806
	c-13.723,10.445-30.795,16.196-48.067,16.196c-2.752,0-5.529-0.14-8.254-0.417c-0.134-0.013-0.267-0.019-0.399-0.019
	c-0.971,0-1.912,0.356-2.639,1.009c-0.828,0.744-1.3,1.8-1.3,2.91v15.911h-2.828c-6.83,0-12.418,5.589-12.418,12.419v1.547
	c0,6.83,5.588,12.418,12.418,12.418h4.681c5.998,21.93,25.964,38.09,49.619,38.09c28.379,0,51.47-19.868,51.47-48.445
	C166.025,132.275,166.05,114.553,166.031,108.307z"/>
<g>
	<path style="fill:#0481BF;" d="M111.959,332.33v59.387c0,9.268-4.071,20.569-9.973,27.904v36.789
		c0.586-0.243,1.227-0.381,1.898-0.381h35.604V332.33H111.959z"/>
	<path style="fill:#0481BF;" d="M74.457,332.33v59.266c-0.113,1.146-1.006,3.561-1.668,4.504l-21.382,24.945
		c0.219,0.157,0.435,0.318,0.63,0.514l26.021,26.021l23.285-27.166c6.25-7.294,10.615-19.094,10.615-28.697V332.33H74.457z"/>
</g>
<g style="opacity:0.1;">
	<path style="fill:#37005E;" d="M74.457,391.596c-0.113,1.146-1.006,3.561-1.668,4.504l-21.382,24.945
		c0.219,0.157,0.435,0.318,0.63,0.514l13.073,13.073l27.72-32.34c0.662-0.942,1.555-3.358,1.668-4.504V332.33H74.457V391.596z"/>
</g>
<path style="fill:#A75436;" d="M80.749,474.932c-1.945,1.945-5.126,1.945-7.071,0L36.17,437.425c-1.945-1.945-1.945-5.126,0-7.071
	l8.796-8.795c1.945-1.945,5.126-1.945,7.071,0l37.507,37.507c1.945,1.945,1.945,5.126,0,7.071L80.749,474.932z"/>
<path style="fill:#FFC12E;" d="M136.442,274.891c-7.338-0.565-16.099-4.594-21.302-9.798L87.567,237.52
	c-5.611-5.611-5.611-14.709,0-20.322c5.613-5.611,14.71-5.611,20.322,0l27.507,27.508c0.682,0.561,2.477,1.385,3.344,1.538h16.525
	v-20.66c0-15.694-7.683-29.623-19.479-38.241c-6.486,2.622-13.682,4.052-21.262,4.052c-10.193,0-19.698-3.006-27.699-8.177
	c-15.544,7.772-26.249,23.839-26.249,42.366v101.8c0,2.732,2.215,4.947,4.947,4.947h84.793c2.731,0,4.947-2.215,4.947-4.947v-52.492
	L136.442,274.891L136.442,274.891z"/>
<g style="opacity:0.1;">
	<path style="fill:#37005E;" d="M98.775,188.899c-4.25-1.38-8.26-3.299-11.949-5.683c-15.544,7.772-26.249,23.839-26.249,42.366
		v101.8c0,2.732,2.215,4.947,4.947,4.947H86.26c-2.732,0-4.947-2.215-4.947-4.947v-101.8
		C81.312,210.8,88.125,197.584,98.775,188.899z"/>
</g>
<g>
	<path id="SVGCleanerId_0_1_" style="fill:#FFD5B3;" d="M166.031,108.307c-0.004-1.954-1.459-3.606-3.405-3.871
		c-12.284-1.672-24.139-6.241-34.28-13.217c-0.676-0.464-1.459-0.695-2.24-0.695c-0.844,0-1.687,0.27-2.393,0.806
		c-13.723,10.445-30.795,16.196-48.067,16.196c-2.752,0-5.529-0.14-8.254-0.417c-0.134-0.013-0.267-0.019-0.399-0.019
		c-0.971,0-1.912,0.356-2.639,1.009c-0.828,0.744-1.3,1.8-1.3,2.91v15.911h-2.828c-6.83,0-12.418,5.589-12.418,12.419v1.547
		c0,6.83,5.588,12.418,12.418,12.418h4.681c5.998,21.93,25.964,38.09,49.619,38.09c28.379,0,51.47-19.868,51.47-48.445
		C166.025,132.275,166.05,114.553,166.031,108.307z"/>
</g>
<g>
	<path style="fill:#90A7BB;" d="M217.867,323.232l16.297-5.015l-12.805-38.465c-1.762,2.875-4.924,4.81-8.524,4.81H200.58
		c-0.372,0-0.737-0.024-1.099-0.065l14.961,44.947C213.736,326.818,215.261,324.034,217.867,323.232z"/>
	<path style="fill:#90A7BB;" d="M384.726,453.892h-57.304v14.233c0,2.75,2.25,5,5,5h50.906c2.75,0,5-2.25,5-5v-15.964
		C387.472,453.209,386.185,453.892,384.726,453.892z"/>
</g>
<path style="fill:#FF484E;" d="M236.997,408.822c5.592-2.548,11.797-3.979,18.332-3.979h54.996v-14.234
	c0-2.75-1.354-6.797-3.009-8.993l-49.547-65.743c-1.655-2.196-5.159-3.332-7.788-2.523l-32.115,9.882
	c-2.628,0.809-4.164,3.634-3.412,6.28L236.997,408.822z"/>
<g style="opacity:0.1;">
	<path style="fill:#37005E;" d="M236.997,408.822c5.592-2.548,11.797-3.979,18.332-3.979h3.288l-23.426-82.421
		c-0.506-1.781,0.04-3.629,1.243-4.902l-18.567,5.713c-2.628,0.809-4.164,3.634-3.412,6.28L236.997,408.822z"/>
</g>
<g style="opacity:0.1;">
	<path style="fill:#37005E;" d="M231.554,449.221c0-24.471,19.908-44.378,44.378-44.378h-20.603
		c-24.47,0-44.378,19.907-44.378,44.378c0,2.579,2.092,4.671,4.67,4.671h20.602C233.645,453.892,231.554,451.8,231.554,449.221z"/>
</g>
<path style="fill:#90A7BB;" d="M281.475,454.961c0,12.982-10.525,23.507-23.508,23.507l0,0c-12.982,0-23.508-10.524-23.508-23.507
	l0,0c0-12.983,10.525-23.508,23.508-23.508l0,0C270.949,431.453,281.475,441.978,281.475,454.961L281.475,454.961z"/>
<g style="opacity:0.1;">
	<path style="fill:#37005E;" d="M255,454.961c0-9.3,5.401-17.337,13.237-21.149c-3.103-1.51-6.588-2.358-10.271-2.358
		c-12.982,0-23.508,10.524-23.508,23.508c0,12.982,10.525,23.507,23.508,23.507c3.683,0,7.167-0.849,10.271-2.358
		C260.401,472.297,255,464.26,255,454.961z"/>
</g>
<path style="fill:#FF6A76;" d="M345.02,404.843h-89.69c-24.47,0-44.378,19.907-44.378,44.378c0,2.579,2.092,4.671,4.67,4.671h18.865
	c0.56-12.487,10.857-22.439,23.481-22.439s22.921,9.952,23.48,22.439h103.278c2.58,0,4.672-2.092,4.672-4.671
	C389.397,424.75,369.489,404.843,345.02,404.843z"/>
<path style="fill:#A75436;" d="M161.928,473.468c0,2.75-2.25,5-5,5h-53.043c-2.75,0-5-2.25-5-5v-12.439c0-2.75,2.25-5,5-5h53.043
	c2.75,0,5,2.25,5,5V473.468z"/>
<path style="fill:#FFD5B3;" d="M212.835,251.89H200.58c-3.971,0-7.41,2.352-9.021,5.726v17.275h-0.962
	c0.177,5.348,4.595,9.671,9.983,9.671h12.255c5.5,0,10-4.5,10-10V261.89C222.835,256.39,218.335,251.89,212.835,251.89z"/>
<path style="fill:#FCDB80;" d="M87.567,217.197c5.613-5.611,14.71-5.611,20.322,0l27.507,27.508
	c0.682,0.561,2.477,1.385,3.344,1.538h52.818v28.648h-55.116c-7.338-0.565-16.099-4.594-21.302-9.798L87.567,237.52
	C81.956,231.908,81.956,222.811,87.567,217.197z"/>
<g style="opacity:0.1;">
	<path style="fill:#37005E;" d="M142.083,260.901c-7.338-0.564-16.099-4.594-21.302-9.798L93.208,223.53
		c-2.185-2.185-3.507-4.9-3.991-7.73c-0.574,0.423-1.131,0.878-1.65,1.397c-5.611,5.613-5.611,14.711,0,20.322l27.573,27.573
		c5.203,5.204,13.964,9.233,21.302,9.798h55.116V260.9L142.083,260.901L142.083,260.901z"/>
</g>
<path d="M504.5,240.096h-11.785v-68.877c0-6.893-5.607-12.5-12.5-12.5h-26.493v-47.856c0-12.407-10.094-22.5-22.5-22.5H359.5
	c-5.758,0-11.016,2.177-15,5.747c-3.984-3.571-9.242-5.747-15-5.747h-71.719c-12.407,0-22.5,10.093-22.5,22.5v47.856h-26.494
	c-6.893,0-12.5,5.607-12.5,12.5v49.386c-1.29-1.05-2.935-1.681-4.729-1.681h-29.206c-1.388-11.397-6.291-21.716-13.584-29.86
	c15.16-9.916,24.726-26.525,24.726-46.094c0.008-2.727,0.042-44.981,0.042-44.981c0-39.678-32.077-71.958-71.504-71.958
	c-18.717,0-36.423,7.258-49.857,20.436c-13.365,13.11-21.03,30.624-21.591,49.328c-0.033,0.604-0.053,100.427-0.053,100.427
	c0,14.6,9.446,27.031,22.547,31.512v99.649c0,6.863,5.584,12.447,12.447,12.447h1.432v51.017c-0.089,0.287-0.227,0.66-0.346,0.935
	l-17.854,20.831c-0.085-0.002-0.169-0.012-0.255-0.012c-3.343,0-6.482,1.298-8.839,3.655l-8.796,8.796
	c-2.357,2.357-3.655,5.496-3.655,8.839s1.298,6.482,3.655,8.839l28.24,28.239H7.5c-4.142,0-7.5,3.358-7.5,7.5s3.358,7.5,7.5,7.5
	h460.029c4.143,0,7.5-3.358,7.5-7.5s-3.357-7.5-7.5-7.5h-72.04c0.214-0.915,0.339-1.864,0.339-2.843v-13.94
	c0.682-1.518,1.069-3.195,1.069-4.964c0-28.605-23.272-51.878-51.878-51.878h-27.194v-6.733c0-4.35-1.9-10.03-4.52-13.507
	l-49.546-65.742c-2.682-3.559-7.263-5.77-11.955-5.77c-1.395,0-2.751,0.199-4.029,0.592l-8.812,2.711l-9.565-28.733
	c0.597-1.761,0.935-3.639,0.935-5.599v-12.672c0-2.408-0.489-4.704-1.373-6.794H266c4.143,0,7.5-3.358,7.5-7.5s-3.357-7.5-7.5-7.5
	h-15.719v-7.04h188.44v7.04H300c-4.143,0-7.5,3.358-7.5,7.5s3.357,7.5,7.5,7.5h204.5c4.143,0,7.5-3.358,7.5-7.5
	C512,243.454,508.643,240.096,504.5,240.096z M250.281,110.862c0-4.135,3.365-7.5,7.5-7.5H329.5c4.136,0,7.5,3.365,7.5,7.5v69.895
	h-86.719v-9.539V110.862z M215.621,461.392h12.013c0.728,3.435,2.023,6.662,3.787,9.576h-61.993v-9.938
	c0-6.893-5.607-12.5-12.5-12.5h-9.938v-56.531c0-4.142-3.358-7.5-7.5-7.5s-7.5,3.358-7.5,7.5v56.53h-22.503V422.13
	c6.055-8.575,9.973-20.306,9.973-30.414v-51.887h12.53v19.17c0,4.142,3.358,7.5,7.5,7.5s7.5-3.358,7.5-7.5V339.83h3.329
	c6.863,0,12.447-5.584,12.447-12.447v-44.992h22.2c1.833,3.646,4.889,6.568,8.642,8.208l13.628,40.938
	c0.002,0.008,0.003,0.017,0.006,0.025l20.892,73.505c-14.797,9.148-24.681,25.516-24.681,44.153
	C203.451,455.932,208.911,461.392,215.621,461.392z M241.959,454.961c0-8.827,7.181-16.008,16.008-16.008
	c8.827,0,16.008,7.181,16.008,16.008c0,8.826-7.181,16.007-16.008,16.007C249.14,470.968,241.959,463.787,241.959,454.961z
	 M43.242,433.89l5.26-5.26l33.972,33.972l-5.26,5.26L43.242,433.89z M94.486,452.814c-0.091,0.105-0.188,0.204-0.276,0.311
	l-5.938-5.938l6.213-7.25v12.877H94.486z M184.059,253.743v13.648h-47.302c-5.49-0.506-12.454-3.742-16.312-7.601l-27.573-27.573
	c-2.678-2.678-2.678-7.037-0.001-9.715c1.298-1.298,3.024-2.013,4.859-2.013s3.56,0.715,4.857,2.012l27.507,27.508
	c0.172,0.172,0.352,0.335,0.54,0.49c1.675,1.378,4.663,2.753,6.802,3.13c0.431,0.076,0.868,0.115,1.306,0.115L184.059,253.743
	L184.059,253.743z M200.58,277.062c-0.638,0-1.225-0.26-1.672-0.67c0.099-0.485,0.151-0.987,0.151-1.5v-14.955
	c0.426-0.335,0.952-0.546,1.521-0.546h12.255c1.355,0,2.5,1.145,2.5,2.5v12.672c0,1.355-1.145,2.5-2.5,2.5H200.58V277.062z
	 M212.762,244.39H200.58c-0.514,0-1.02,0.03-1.521,0.075v-7.447h11.203c1.355,0,2.5,1.145,2.5,2.5L212.762,244.39L212.762,244.39z
	 M184.059,238.743h-21.293v-4.819h21.293V238.743z M147.766,225.583v13.16h-7.725l-26.849-26.85
	c-4.131-4.13-9.623-6.405-15.463-6.405c-5.841,0-11.333,2.275-15.466,6.406c-8.525,8.528-8.525,22.402,0.001,30.928l27.573,27.573
	c6.46,6.461,16.92,11.272,26.03,11.973c0.191,0.015,0.383,0.022,0.575,0.022h11.323v42.439H68.078v-99.247
	c0-14.195,7.468-26.669,18.676-33.726c8.357,4.511,17.848,7.037,27.771,7.037c7.04,0,13.71-1.067,19.868-3.028
	C142.585,203.166,147.766,213.773,147.766,225.583z M158.495,142.948c0,23.343-18.903,40.945-43.97,40.945
	c-19.711,0-37.14-13.393-42.385-32.568c-0.892-3.261-3.854-5.521-7.234-5.521h-4.681c-2.666,0-4.918-2.252-4.918-4.918v-1.547
	c0-2.667,2.252-4.919,4.918-4.919h2.828c4.142,0,7.5-3.358,7.5-7.5v-12.04c1.694,0.096,3.396,0.145,5.092,0.145
	c18.059,0,35.914-5.744,50.565-16.219c9.752,6.286,20.824,10.595,32.327,12.585C158.543,119.007,158.522,133.377,158.495,142.948z
	 M45.575,96.328c0.425-14.845,6.5-28.75,17.105-39.153c10.613-10.411,24.588-16.144,39.353-16.144
	c30.529,0,55.464,24.537,56.457,55.073c-9.275-1.959-18.141-5.732-25.9-11.068c-1.917-1.316-4.16-2.012-6.484-2.012
	c-2.489,0-4.951,0.83-6.935,2.338c-12.423,9.456-27.881,14.664-43.525,14.664c-2.506,0-5.027-0.127-7.545-0.383
	c-3.219-0.305-6.385,0.744-8.759,2.878c-2.407,2.163-3.787,5.256-3.787,8.489v8.964c-3.948,0.952-7.335,3.092-9.979,6.007
	C45.58,117.449,45.573,96.398,45.575,96.328z M54.766,212.09c-5.507-3.157-9.235-9.079-9.235-15.869v-41.93
	c3.487,3.818,8.423,6.291,13.939,6.498c3.203,8.394,8.218,15.786,14.501,21.775C64.655,189.93,57.777,200.245,54.766,212.09z
	 M78.483,400.98c0.157-0.183,0.304-0.372,0.442-0.569c1.409-2.005,2.753-5.629,2.995-8.077c0.024-0.246,0.036-0.492,0.036-0.738
	V339.83h22.502v51.887c0,7.843-3.705,17.859-8.81,23.816L77.633,436.55l-15.96-15.96L78.483,400.98z M106.385,470.968v-7.438h48.043
	v7.438H106.385z M284.514,470.968c1.764-2.914,3.059-6.142,3.786-9.576h31.622v6.733c0,0.979,0.125,1.928,0.339,2.843H284.514z
	 M334.922,461.392h45.906v4.233h-45.906V461.392z M381.79,446.392h-94.029c-3.729-12.941-15.669-22.439-29.794-22.439
	s-26.065,9.497-29.794,22.439h-9.614c1.45-19.018,17.388-34.049,36.77-34.049h89.69C364.402,412.343,380.34,427.374,381.79,446.392z
	 M251.894,320.609c0.023,0.007,0.048,0.015,0.071,0.023l49.361,65.497c0.672,0.893,1.499,3.364,1.499,4.481v6.733h-47.496
	c-4.599,0-9.057,0.609-13.305,1.737l-19.715-69.368L251.894,320.609z M217.686,315.44l-7.782-23.379h2.931
	c1.563,0,3.071-0.226,4.514-0.612l7.275,21.856L217.686,315.44z M227.762,240.096v-0.578c0-9.303-7.303-16.913-16.475-17.448
	v-48.351h23.994v66.377H227.762z M250.281,218.056v-22.298H387c4.143,0,7.5-3.358,7.5-7.5s-3.357-7.5-7.5-7.5h-35v-69.895
	c0-4.135,3.364-7.5,7.5-7.5h71.722c4.136,0,7.5,3.365,7.5,7.5v69.895H423c-4.143,0-7.5,3.358-7.5,7.5s3.357,7.5,7.5,7.5h15.722
	v22.298H250.281z M453.722,240.096v-66.377h23.993v66.377H453.722z"/>
<path d="M114.356,133.324v0.267c-2.719,1.126-4.632,3.806-4.632,6.932c0,4.142,3.358,7.5,7.5,7.5h1.84
	c5.675,0,10.292-4.625,10.292-10.31v-4.39c0-4.142-3.358-7.5-7.5-7.5C117.714,125.824,114.356,129.182,114.356,133.324z"/>
<path d="M143.977,139.299c4.142,0,7.5-3.358,7.5-7.5v-6.556c0-4.142-3.358-7.5-7.5-7.5s-7.5,3.358-7.5,7.5v6.556
	C136.477,135.941,139.834,139.299,143.977,139.299z"/>
<path d="M105.186,131.799v-6.556c0-4.142-3.358-7.5-7.5-7.5s-7.5,3.358-7.5,7.5v6.556c0,4.142,3.358,7.5,7.5,7.5
	C101.829,139.299,105.186,135.941,105.186,131.799z"/>
<path d="M127.755,154.793c-1.84,2.532-4.687,4.094-7.809,4.286c-3.12,0.196-6.143-1.011-8.282-3.302
	c-2.826-3.028-7.572-3.189-10.6-0.363c-3.027,2.827-3.19,7.573-0.363,10.6c4.844,5.188,11.546,8.085,18.587,8.085
	c0.524,0,1.05-0.016,1.578-0.048c7.607-0.468,14.54-4.273,19.021-10.438c2.436-3.35,1.694-8.04-1.657-10.476
	C134.881,150.7,130.19,151.442,127.755,154.793z"/>
<path d="M328.66,360.969c-1.4,1.4-2.2,3.33-2.2,5.3c0,1.98,0.8,3.91,2.2,5.31c1.399,1.39,3.33,2.19,5.3,2.19
	c1.98,0,3.91-0.8,5.31-2.19c1.391-1.4,2.19-3.33,2.19-5.31c0-1.97-0.8-3.9-2.19-5.3c-1.399-1.4-3.33-2.2-5.31-2.2
	C331.979,358.769,330.05,359.569,328.66,360.969z"/>
<path d="M364.91,307.539c-1.4-1.39-3.33-2.19-5.301-2.19c-1.97,0-3.909,0.8-5.31,2.19c-1.39,1.4-2.19,3.33-2.19,5.31
	c0,1.97,0.801,3.9,2.19,5.3c1.4,1.4,3.34,2.2,5.31,2.2c1.971,0,3.9-0.8,5.301-2.2c1.399-1.4,2.199-3.33,2.199-5.3
	C367.109,310.869,366.31,308.939,364.91,307.539z"/>
<path d="M370.29,356.679c1.979,0,3.91-0.8,5.31-2.2c1.391-1.4,2.19-3.33,2.19-5.3c0-1.98-0.8-3.91-2.19-5.31
	c-1.399-1.39-3.33-2.19-5.31-2.19c-1.971,0-3.91,0.8-5.3,2.19c-1.4,1.4-2.2,3.33-2.2,5.31c0,1.97,0.8,3.9,2.2,5.3
	C366.39,355.879,368.319,356.679,370.29,356.679z"/>
<path d="M401.319,396.229c-1.399,1.4-2.199,3.33-2.199,5.3c0,1.98,0.8,3.91,2.199,5.31c1.391,1.39,3.33,2.19,5.301,2.19
	c1.98,0,3.91-0.8,5.31-2.19c1.39-1.4,2.19-3.33,2.19-5.31c0-1.97-0.801-3.9-2.19-5.3c-1.399-1.39-3.33-2.19-5.31-2.19
	C404.649,394.039,402.72,394.839,401.319,396.229z"/>
<g>
</g>
<g>
</g>
<g>
</g>
<g>
</g>
<g>
</g>
<g>
</g>
<g>
</g>
<g>
</g>
<g>
</g>
<g>
</g>
<g>
</g>
<g>
</g>
<g>
</g>
<g>
</g>
<g>
</g>
</svg>
